<svg width="201" height="193" viewBox="0 0 201 193" fill="none" xmlns="http://www.w3.org/2000/svg">
<path d="M149.687 0C154.809 0 158.458 3.70417 158.465 9H168.073C189.363 9.00008 200.35 19.9501 200.35 40.9795V160.824C200.35 181.836 189.363 192.803 168.073 192.803H32.3574C11.0675 192.803 7.47237e-05 181.917 0 160.824V40.9795C7.20012e-05 19.8692 11.0675 9 32.3574 9H42C42.0064 3.70417 45.6411 0 50.6875 0C55.8097 0.00014528 59.4584 3.70427 59.4648 9H91.2812C91.2876 3.7042 94.9216 4.48031e-05 99.9678 0C105.09 0 108.74 3.70417 108.746 9H141C141.006 3.70433 144.64 0.000231458 149.687 0ZM19.3252 160.611C19.3253 169.273 23.8035 173.511 32.085 173.511H168.184C176.465 173.511 181.025 169.273 181.025 160.611V66H19.3252V160.611ZM54.4316 140.471C58.0248 140.471 59.1591 141.491 59.1592 145.009V150.801C59.1592 154.318 58.0248 155.419 54.4316 155.419H48.7275C45.1347 155.419 44 154.318 44 150.801V145.009C44 141.491 45.1348 140.471 48.7275 140.471H54.4316ZM86.6641 140.471C90.1589 140.471 91.2939 141.491 91.2939 145.009V150.801C91.2939 154.318 90.159 155.419 86.6641 155.419H80.8623C77.3677 155.419 76.1523 154.318 76.1523 150.801V145.009C76.1524 141.491 77.3677 140.471 80.8623 140.471H86.6641ZM118.799 140.471C122.294 140.471 123.528 141.491 123.528 145.009V150.801C123.528 154.318 122.294 155.419 118.799 155.419H112.998C109.502 155.419 108.287 154.318 108.287 150.801V145.009C108.287 141.491 109.502 140.471 112.998 140.471H118.799ZM54.4316 108.767C58.0247 108.767 59.1591 109.805 59.1592 113.305V119.114C59.1591 122.614 58.0247 123.652 54.4316 123.652H48.7275C45.1348 123.652 44.0001 122.614 44 119.114V113.305C44.0001 109.805 45.1348 108.767 48.7275 108.767H54.4316ZM86.6641 108.767C90.1589 108.767 91.2939 109.805 91.2939 113.305V119.114C91.2939 122.614 90.1589 123.652 86.6641 123.652H80.8623C77.3678 123.652 76.1524 122.614 76.1523 119.114V113.305C76.1524 109.805 77.3678 108.767 80.8623 108.767H86.6641ZM118.799 108.767C122.294 108.767 123.528 109.805 123.528 113.305V119.114C123.528 122.614 122.294 123.652 118.799 123.652H112.998C109.502 123.652 108.287 122.614 108.287 119.114V113.305C108.287 109.805 109.502 108.767 112.998 108.767H118.799ZM150.951 108.767C154.447 108.767 155.662 109.805 155.662 113.305V119.114C155.662 122.614 154.447 123.652 150.951 123.652H145.149C141.656 123.652 140.521 122.614 140.521 119.114V113.305C140.521 109.805 141.656 108.767 145.149 108.767H150.951ZM86.6641 77C90.1589 77 91.2939 78.1187 91.2939 81.6182V87.4277C91.2939 90.9274 90.159 91.9658 86.6641 91.9658H80.8623C77.3677 91.9658 76.1523 90.9273 76.1523 87.4277V81.6182C76.1524 78.1188 77.3677 77.0001 80.8623 77H86.6641ZM118.799 77C122.294 77 123.528 78.1187 123.528 81.6182V87.4277C123.528 90.9274 122.294 91.9658 118.799 91.9658H112.998C109.502 91.9658 108.287 90.9274 108.287 87.4277V81.6182C108.287 78.1187 109.502 77 112.998 77H118.799ZM150.951 77C154.447 77 155.662 78.1187 155.662 81.6182V87.4277C155.662 90.9274 154.447 91.9658 150.951 91.9658H145.149C141.655 91.9658 140.521 90.9274 140.521 87.4277V81.6182C140.521 78.1187 141.655 77 145.149 77H150.951ZM32.085 28.0977C23.8034 28.0977 19.3253 32.3988 19.3252 40.9795V47H181.025V40.9795C181.025 32.3988 176.466 28.0977 168.184 28.0977H157.998C157.955 33.3406 154.43 37 149.544 37C144.585 37 141.045 33.3404 141.002 28.0977H108.744C108.7 33.3489 105.078 37.0146 100.058 37.0146C94.9628 37.0144 91.3276 33.3488 91.2832 28.0977H59.4629C59.4186 33.3489 55.7971 37.0146 50.7773 37.0146C45.6821 37.0144 42.0464 33.3488 42.002 28.0977H32.085Z" fill="black" fill-opacity="0.85"/>
</svg>
