<svg width="201" height="193" viewBox="0 0 201 193" fill="none" xmlns="http://www.w3.org/2000/svg">
<path d="M149.687 0C154.809 0 158.458 3.70417 158.465 9H168.073C189.363 9.00008 200.35 19.9501 200.35 40.9795V160.824C200.35 181.836 189.363 192.803 168.073 192.803H32.3574C11.0675 192.803 7.47237e-05 181.917 0 160.824V40.9795C7.20012e-05 19.8692 11.0675 9 32.3574 9H42C42.0064 3.70417 45.6411 0 50.6875 0C55.8097 0.00014528 59.4584 3.70427 59.4648 9H91.2812C91.2876 3.7042 94.9216 4.48031e-05 99.9678 0C105.09 0 108.74 3.70417 108.746 9H141C141.006 3.70433 144.64 0.000231458 149.687 0ZM48.7275 140.471C45.1348 140.471 44 141.491 44 145.009V150.801C44 154.318 45.1347 155.419 48.7275 155.419H54.4316C58.0248 155.419 59.1592 154.318 59.1592 150.801V145.009C59.1591 141.491 58.0248 140.471 54.4316 140.471H48.7275ZM80.8623 140.471C77.3677 140.471 76.1524 141.491 76.1523 145.009V150.801C76.1523 154.318 77.3677 155.419 80.8623 155.419H86.665C90.1596 155.419 91.2939 154.318 91.2939 150.801V145.009C91.2939 141.491 90.1595 140.471 86.665 140.471H80.8623ZM112.998 140.471C109.502 140.471 108.287 141.491 108.287 145.009V150.801C108.287 154.318 109.502 155.419 112.998 155.419H118.799C122.294 155.419 123.528 154.318 123.528 150.801V145.009C123.528 141.491 122.294 140.471 118.799 140.471H112.998ZM48.7275 108.767C45.1348 108.767 44.0001 109.805 44 113.305V119.114C44.0001 122.614 45.1348 123.652 48.7275 123.652H54.4316C58.0247 123.652 59.1591 122.614 59.1592 119.114V113.305C59.1591 109.805 58.0247 108.767 54.4316 108.767H48.7275ZM80.8623 108.767C77.3678 108.767 76.1524 109.805 76.1523 113.305V119.114C76.1524 122.614 77.3678 123.652 80.8623 123.652H86.665C90.1595 123.652 91.2939 122.614 91.2939 119.114V113.305C91.2939 109.805 90.1595 108.767 86.665 108.767H80.8623ZM112.998 108.767C109.502 108.767 108.287 109.805 108.287 113.305V119.114C108.287 122.614 109.502 123.652 112.998 123.652H118.799C122.294 123.652 123.528 122.614 123.528 119.114V113.305C123.528 109.805 122.294 108.767 118.799 108.767H112.998ZM145.149 108.767C141.656 108.767 140.521 109.805 140.521 113.305V119.114C140.521 122.614 141.656 123.652 145.149 123.652H150.951C154.447 123.652 155.662 122.614 155.662 119.114V113.305C155.662 109.805 154.447 108.767 150.951 108.767H145.149ZM80.8623 77C77.3677 77.0001 76.1524 78.1188 76.1523 81.6182V87.4277C76.1523 90.9273 77.3677 91.9658 80.8623 91.9658H86.665C90.1596 91.9657 91.2939 90.9273 91.2939 87.4277V81.6182C91.2939 78.1188 90.1595 77.0001 86.665 77H80.8623ZM112.998 77C109.502 77 108.287 78.1187 108.287 81.6182V87.4277C108.287 90.9274 109.502 91.9658 112.998 91.9658H118.799C122.294 91.9658 123.528 90.9274 123.528 87.4277V81.6182C123.528 78.1187 122.294 77 118.799 77H112.998ZM145.149 77C141.655 77 140.521 78.1187 140.521 81.6182V87.4277C140.521 90.9274 141.655 91.9658 145.149 91.9658H150.951C154.447 91.9658 155.662 90.9274 155.662 87.4277V81.6182C155.662 78.1187 154.447 77 150.951 77H145.149ZM32.085 28.0977C23.8034 28.0977 19.3253 32.3988 19.3252 40.9795V47H181.025V40.9795C181.025 32.3988 176.466 28.0977 168.184 28.0977H157.998C157.955 33.3406 154.43 37 149.544 37C144.585 37 141.045 33.3404 141.002 28.0977H108.744C108.7 33.3489 105.078 37.0146 100.058 37.0146C94.9628 37.0144 91.3276 33.3488 91.2832 28.0977H59.4629C59.4186 33.3489 55.7971 37.0146 50.7773 37.0146C45.6821 37.0144 42.0464 33.3488 42.002 28.0977H32.085Z" fill="black" fill-opacity="0.85"/>
</svg>
