<svg width="38" height="38" viewBox="0 0 38 38" fill="none" xmlns="http://www.w3.org/2000/svg">
<path fill-rule="evenodd" clip-rule="evenodd" d="M19 0C29.4934 0 38 8.50659 38 19C38 29.4934 29.4934 38 19 38C8.50659 38 0 29.4934 0 19C0 8.50659 8.50659 0 19 0ZM19.0078 8C18.6009 8 18.2545 8.14114 17.9697 8.42383C17.6851 8.7064 17.5431 9.0331 17.543 9.40332V18.1035H8.46484C8.06815 18.1035 7.72174 18.2398 7.42676 18.5127C7.14211 18.7855 7.00012 19.1172 7 19.5068C7 19.8967 7.14199 20.229 7.42676 20.502C7.72174 20.7749 8.06815 20.9111 8.46484 20.9111H17.543V29.6113C17.5431 29.9913 17.6851 30.318 17.9697 30.5908C18.2545 30.8638 18.6009 31 19.0078 31C19.4146 31 19.7557 30.8637 20.0303 30.5908C20.3149 30.318 20.4569 29.9913 20.457 29.6113V20.9111H29.5508C29.9371 20.9111 30.2729 20.7747 30.5576 20.502C30.8526 20.229 31 19.8967 31 19.5068C30.9999 19.1171 30.8525 18.7855 30.5576 18.5127C30.2729 18.2399 29.9371 18.1036 29.5508 18.1035H20.457V9.40332C20.4569 9.0331 20.3149 8.7064 20.0303 8.42383C19.7557 8.14118 19.4146 8.00004 19.0078 8Z" fill="#B871CE"/>
</svg>
