<svg width="38" height="38" viewBox="0 0 38 38" fill="none" xmlns="http://www.w3.org/2000/svg">
<path d="M19 0C29.4934 0 38 8.50659 38 19C38 29.4934 29.4934 38 19 38C8.50659 38 0 29.4934 0 19C0 8.50659 8.50659 0 19 0ZM19 3C10.1634 3 3 10.1634 3 19C3 27.8366 10.1634 35 19 35C27.8366 35 35 27.8366 35 19C35 10.1634 27.8366 3 19 3ZM19.0078 8C19.4146 8.00004 19.7557 8.14118 20.0303 8.42383C20.3149 8.7064 20.4569 9.0331 20.457 9.40332V18.1035H29.5508C29.9371 18.1036 30.2729 18.2399 30.5576 18.5127C30.8525 18.7855 30.9999 19.1171 31 19.5068C31 19.8967 30.8526 20.229 30.5576 20.502C30.2729 20.7747 29.9371 20.9111 29.5508 20.9111H20.457V29.6113C20.4569 29.9913 20.3149 30.318 20.0303 30.5908C19.7557 30.8637 19.4146 31 19.0078 31C18.6009 31 18.2545 30.8638 17.9697 30.5908C17.6851 30.318 17.5431 29.9913 17.543 29.6113V20.9111H8.46484C8.06815 20.9111 7.72174 20.7749 7.42676 20.502C7.14199 20.229 7 19.8967 7 19.5068C7.00012 19.1172 7.14211 18.7855 7.42676 18.5127C7.72174 18.2398 8.06815 18.1035 8.46484 18.1035H17.543V9.40332C17.5431 9.0331 17.6851 8.7064 17.9697 8.42383C18.2545 8.14114 18.6009 8 19.0078 8Z" fill="#B871CE"/>
</svg>
