<svg width="310" height="333" viewBox="0 0 310 333" fill="none" xmlns="http://www.w3.org/2000/svg">
<path d="M40.7716 234.625H24.86V291.045C24.86 303.532 31.3453 309.789 43.3093 309.789H261.94C273.776 309.789 280.365 303.532 280.365 291.045V234.625H264.482C286.641 234.258 299.927 224.593 303.918 206.969C304.93 211.126 305.249 215.927 305.249 221.642V292.73C305.249 318.644 290.923 332.873 263.075 332.873H42.1278C14.409 332.873 0 318.712 0 292.73V221.642C0 215.919 0.318927 211.113 1.33519 206.954C5.34353 224.587 18.6856 234.258 40.7716 234.625ZM152.613 274.63C126.722 274.63 106.732 257.538 102.731 234.671H127.104C131.294 244 140.337 251.475 152.613 251.475C164.98 251.475 174.049 244 178.246 234.671H202.518C198.518 257.538 178.526 274.63 152.613 274.63Z" fill="black" fill-opacity="0.85"/>
<path fill-rule="evenodd" clip-rule="evenodd" d="M177.45 38C176.503 41.8443 176 45.8634 176 50C176 53.1039 176.284 56.1415 176.825 59.0889H95.9346C84.8209 59.0889 79.9843 61.5983 72.7979 68.125L27.96 108.316C25.3096 110.697 26.1982 114.147 29.7705 114.147H114.571C121.341 114.147 124.436 118.955 124.437 124.007V124.475C124.437 138.409 135.314 153.273 152.613 153.273C170.04 153.273 180.917 138.408 180.917 124.475V124.007C180.917 118.955 183.884 114.147 190.678 114.147H275.455C279.028 114.147 279.917 110.697 277.288 108.316L256.462 89.6475C262.34 85.1243 267.185 79.3254 270.579 72.6621L270.583 72.666L295.871 95.416C303.715 102.187 305.249 110.52 305.249 123.44V194.506C305.249 220.441 290.923 234.671 263.075 234.671H42.1738C14.4321 234.671 0 220.441 0 194.506V123.44C0 110.52 1.53305 102.187 9.37695 95.416L54.2744 55.1201C68.9761 42.3025 79.8843 38 98.9473 38H177.45ZM24.8604 136.422V192.843C24.8604 205.306 31.3456 211.564 43.3096 211.564H261.94C273.776 211.564 280.365 205.306 280.365 192.843V136.422H202.528C198.544 159.312 178.543 176.404 152.613 176.404C126.705 176.404 106.704 159.312 102.721 136.422H24.8604Z" fill="black" fill-opacity="0.85"/>
<path d="M256 50C256 66.5685 242.569 80 226 80C209.431 80 196 66.5685 196 50C196 33.4315 209.431 20 226 20C242.569 20 256 33.4315 256 50Z" fill="#DC1619" fill-opacity="0.85"/>
<path d="M226 10C248.091 10 266 27.9086 266 50C266 72.0914 248.091 90 226 90C203.909 90 186 72.0914 186 50C186 27.9086 203.909 10 226 10Z" stroke="black" stroke-opacity="0.85" stroke-width="20"/>
</svg>
