<svg width="38" height="38" viewBox="0 0 38 38" fill="none" xmlns="http://www.w3.org/2000/svg">
<path d="M18.9844 37.9688C16.3542 37.9688 13.8932 37.474 11.6016 36.4844C9.32292 35.5078 7.3112 34.1471 5.56641 32.4023C3.82161 30.6576 2.45443 28.6393 1.46484 26.3477C0.488281 24.056 0 21.6016 0 18.9844C0 16.3672 0.488281 13.9128 1.46484 11.6211C2.45443 9.31641 3.82161 7.29818 5.56641 5.56641C7.3112 3.82161 9.32292 2.46094 11.6016 1.48438C13.8932 0.494792 16.3542 0 18.9844 0C21.6016 0 24.056 0.494792 26.3477 1.48438C28.6393 2.46094 30.651 3.82161 32.3828 5.56641C34.1276 7.29818 35.4883 9.31641 36.4648 11.6211C37.4544 13.9128 37.9492 16.3672 37.9492 18.9844C37.9492 21.6016 37.4544 24.056 36.4648 26.3477C35.4883 28.6393 34.1276 30.6576 32.3828 32.4023C30.651 34.1471 28.6393 35.5078 26.3477 36.4844C24.056 37.474 21.6016 37.9688 18.9844 37.9688ZM18.9844 34.4922C21.1198 34.4922 23.125 34.0885 25 33.2812C26.875 32.474 28.5221 31.3607 29.9414 29.9414C31.3737 28.5221 32.487 26.8815 33.2812 25.0195C34.0755 23.1445 34.4727 21.1328 34.4727 18.9844C34.4727 16.8359 34.0755 14.8307 33.2812 12.9688C32.487 11.0938 31.3737 9.44661 29.9414 8.02734C28.5221 6.60807 26.875 5.49479 25 4.6875C23.125 3.88021 21.1198 3.47656 18.9844 3.47656C16.8359 3.47656 14.8242 3.88021 12.9492 4.6875C11.0872 5.49479 9.4401 6.60807 8.00781 8.02734C6.58854 9.44661 5.47526 11.0938 4.66797 12.9688C3.8737 14.8307 3.47656 16.8359 3.47656 18.9844C3.47656 21.1328 3.8737 23.1445 4.66797 25.0195C5.47526 26.8815 6.58854 28.5221 8.00781 29.9414C9.4401 31.3607 11.0872 32.474 12.9492 33.2812C14.8242 34.0885 16.8359 34.4922 18.9844 34.4922ZM12.4023 10.4102C12.6758 10.1237 12.9883 9.99349 13.3398 10.0195C13.6914 10.0326 13.9779 10.1628 14.1992 10.4102L18.7305 15C18.9648 15.2604 19.082 15.5664 19.082 15.918C19.082 16.2565 18.9714 16.543 18.75 16.7773C18.5286 16.9987 18.2422 17.1094 17.8906 17.1094C17.5521 17.1094 17.2591 16.9922 17.0117 16.7578L15.1562 14.8047L14.4922 14.1016L14.5508 15V26.7773C14.5508 27.1159 14.4336 27.4023 14.1992 27.6367C13.9648 27.8711 13.6654 27.9883 13.3008 27.9883C12.9492 27.9883 12.6562 27.8711 12.4219 27.6367C12.1875 27.4023 12.0703 27.1159 12.0703 26.7773V15.0195L12.0898 14.1016L11.4844 14.8047L9.58984 16.7383C9.34245 16.9857 9.05599 17.1094 8.73047 17.1094C8.37891 17.1094 8.08594 16.9987 7.85156 16.7773C7.61719 16.543 7.5 16.2565 7.5 15.918C7.5 15.6185 7.6237 15.3125 7.87109 15L12.4023 10.4102ZM25.5273 27.6172C25.2799 27.8776 24.9674 28.0013 24.5898 27.9883C24.2253 27.9753 23.9258 27.8516 23.6914 27.6172L19.1992 22.9883C18.9518 22.7148 18.8281 22.4219 18.8281 22.1094C18.8281 21.7448 18.9388 21.4518 19.1602 21.2305C19.3815 21.0091 19.6745 20.8984 20.0391 20.8984C20.3776 20.8984 20.6641 21.0156 20.8984 21.25L22.793 23.1836L23.418 23.8867L23.3789 22.9883V11.2305C23.3789 10.8789 23.4961 10.5859 23.7305 10.3516C23.9648 10.1172 24.2578 10 24.6094 10C24.974 10 25.2734 10.1172 25.5078 10.3516C25.7422 10.5859 25.8594 10.8789 25.8594 11.2305V22.9883L25.8203 23.8672L26.4648 23.1836L28.3398 21.25C28.5612 21.0156 28.8477 20.8984 29.1992 20.8984C29.5508 20.8984 29.8372 21.0091 30.0586 21.2305C30.293 21.4518 30.4102 21.7448 30.4102 22.1094C30.4102 22.4349 30.2799 22.7279 30.0195 22.9883L25.5273 27.6172Z" fill="#B871CE"/>
</svg>
