<svg width="45" height="40" viewBox="0 0 45 40" fill="none" xmlns="http://www.w3.org/2000/svg">
<path d="M5.9375 38.6562C3.98438 38.6562 2.50651 38.1615 1.50391 37.1719C0.501302 36.1823 0 34.7174 0 32.7773V21.8594C0 21.2344 0.0325521 20.707 0.0976562 20.2773C0.175781 19.8346 0.292969 19.4375 0.449219 19.0859C0.61849 18.7344 0.852865 18.3698 1.15234 17.9922L7.5 10.2188C8.21615 9.33333 8.86068 8.63672 9.43359 8.12891C10.0065 7.62109 10.6315 7.26302 11.3086 7.05469C11.9987 6.83333 12.8776 6.72266 13.9453 6.72266H29.8438C30.9115 6.72266 31.7839 6.83333 32.4609 7.05469C33.138 7.26302 33.7565 7.62109 34.3164 8.12891C34.8893 8.63672 35.5404 9.33333 36.2695 10.2188L42.6172 17.9922C42.9167 18.3698 43.151 18.7344 43.3203 19.0859C43.4896 19.4375 43.6068 19.8346 43.6719 20.2773C43.737 20.707 43.7695 21.2344 43.7695 21.8594V32.7773C43.7695 34.7174 43.2682 36.1823 42.2656 37.1719C41.276 38.1615 39.7917 38.6562 37.8125 38.6562H5.9375ZM4.23828 20.5312H16.3086C16.7773 20.5312 17.1289 20.681 17.3633 20.9805C17.5977 21.2799 17.7148 21.612 17.7148 21.9766V22.0547C17.7148 22.7318 17.8841 23.4023 18.2227 24.0664C18.5612 24.7174 19.043 25.2578 19.668 25.6875C20.293 26.1042 21.0352 26.3125 21.8945 26.3125C22.7409 26.3125 23.4701 26.1042 24.082 25.6875C24.707 25.2578 25.1888 24.7174 25.5273 24.0664C25.8659 23.4023 26.0352 22.7318 26.0352 22.0547V21.9766C26.0352 21.612 26.1523 21.2799 26.3867 20.9805C26.6211 20.681 26.9792 20.5312 27.4609 20.5312H39.5312C39.8307 20.5312 40.013 20.4271 40.0781 20.2188C40.1432 20.0104 40.1042 19.8086 39.9609 19.6133L33.1641 11.0977C32.7344 10.5508 32.2591 10.1602 31.7383 9.92578C31.2305 9.67839 30.6576 9.55469 30.0195 9.55469H13.75C13.099 9.55469 12.5195 9.67839 12.0117 9.92578C11.5039 10.1602 11.0352 10.5508 10.6055 11.0977L3.80859 19.6133C3.65234 19.8086 3.60677 20.0104 3.67188 20.2188C3.73698 20.4271 3.92578 20.5312 4.23828 20.5312ZM6.05469 35.3359H37.7148C38.5872 35.3359 39.2643 35.1016 39.7461 34.6328C40.2279 34.1641 40.4688 33.4674 40.4688 32.543V23.5H29.0234C28.8411 24.6198 28.4245 25.6224 27.7734 26.5078C27.1224 27.3932 26.2891 28.0964 25.2734 28.6172C24.2578 29.125 23.1315 29.3789 21.8945 29.3789C20.6445 29.3789 19.5117 29.125 18.4961 28.6172C17.4805 28.0964 16.6406 27.3932 15.9766 26.5078C15.3255 25.6224 14.9089 24.6198 14.7266 23.5H3.30078V32.543C3.30078 33.4674 3.53516 34.1641 4.00391 34.6328C4.48568 35.1016 5.16927 35.3359 6.05469 35.3359Z" fill="black"/>
<path d="M33.2852 14.5C36.875 14.5 39.7852 11.5899 39.7852 8C39.7852 4.41015 36.875 1.5 33.2852 1.5C29.6953 1.5 26.7852 4.41015 26.7852 8C26.7852 11.5899 29.6953 14.5 33.2852 14.5Z" fill="#DC1619" stroke="black" stroke-width="3"/>
</svg>
